<svg id="Capa_1" enable-background="new 0 0 488.383 488.383" height="512" viewBox="0 0 488.383 488.383" width="512" xmlns="http://www.w3.org/2000/svg"><g><g><path d="m408.394 94.917-15.55-15.55c-6.949-6.949-6.949-18.214 0-25.163l48.992-48.992c6.948-6.949 18.214-6.949 25.163 0l15.55 15.55c6.949 6.948 6.949 18.214 0 25.163l-48.992 48.992c-6.949 6.948-18.215 6.948-25.163 0z" fill="#c49a8b"/><path d="m388.232 161.133 59.758-59.758c5.719-5.719 5.719-14.992 0-20.711l-39.088-39.088c-5.719-5.719-14.992-5.719-20.711 0l-59.758 59.758c-9.756 9.756-23.278 14.569-37.046 13.681-36.219-2.336-77.699 12.581-100.59 35.471l-10.955 10.955-38.958 41.62-40.637 82.175-67.388 33.235-22.272 23.795c-13.581 14.437-13.236 37.052.78 51.067l84.307 84.307c13.988 13.988 36.547 14.363 50.993.849l23.943-22.268 40.359-66.597 75.408-41.072 41.749-38.829 10.955-10.955c22.89-22.89 37.807-64.371 35.471-100.59-.889-13.766 3.925-27.289 13.68-37.045z" fill="#a1e8c3"/><path d="m170.609 456.222-137.75-137.751 108.025-115.409 145.491 145.491z" fill="#faf1a9"/><path d="m374.551 198.18c-.888-13.768 3.926-27.291 13.681-37.046l59.758-59.758c5.719-5.719 5.719-14.992 0-20.711l-39.088-39.088c-5.719-5.719-14.992-5.719-20.711 0l-9.278 9.278 28.779 28.779c4.458 4.458 4.143 12-.703 16.846l-50.634 50.634c-8.266 8.266-12.641 19.429-12.386 30.597.67 29.38-12.871 63.626-32.266 83.021l-9.283 9.283-48.868 45.715-44.841 60.614s-63.07 47.742-73.149 44.837c-9.919 2.823-20.592.626-27.913-6.695l-65.711-65.711c-7.32-7.319-9.512-17.986-6.692-27.899l-.337-2.262-2.05-.141-22.273 23.795c-13.581 14.437-13.236 37.052.78 51.067l84.307 84.307c13.988 13.988 36.547 14.363 50.993.849l23.943-22.268 52.465-70.246 63.302-37.422 41.749-38.829 10.956-10.956c22.889-22.891 37.806-64.372 35.47-100.59z" fill="#85adc2"/><g fill="#dfb5a7"><path d="m35.269 320.882c1.045-3.676 2.756-7.253 5.174-10.513l-7.584 8.103z"/><path d="m170.609 456.222 115.766-107.668-32.824-32.824-104.456 97.715c-4.011 3.772-8.684 6.347-13.536 7.727z"/></g><path d="m429.565 116.485-56.485-56.485c-3.038-3.038-3.038-7.964 0-11.002l21.607-21.607c3.038-3.038 7.964-3.038 11.002 0l56.485 56.485c3.038 3.038 3.038 7.964 0 11.002l-21.607 21.607c-3.038 3.038-7.964 3.038-11.002 0z" fill="#a1e8c3"/><g><path d="m426.887 123.807c-2.559 0-5.119-.976-7.071-2.929l-50.168-50.168c-3.905-3.905-3.905-10.237 0-14.143 3.905-3.905 10.237-3.905 14.143 0l50.168 50.168c3.905 3.905 3.905 10.237 0 14.143-1.954 1.952-4.513 2.929-7.072 2.929z" fill="#518699"/></g><g><g><path d="m170.311 334.544c-1.828 0-3.633-.831-4.811-2.407-1.981-2.651-1.445-6.402 1.202-8.388 1.172-.879 28.979-21.382 53.146-8.773 2.938 1.533 4.077 5.157 2.544 8.095-1.532 2.938-5.156 4.079-8.095 2.544-17.438-9.097-40.175 7.571-40.403 7.741-1.077.801-2.336 1.188-3.583 1.188z" fill="#b74a96"/></g><g fill="#d789b9"><ellipse cx="153.863" cy="309.108" rx="22.308" ry="21.258" transform="matrix(.707 -.707 .707 .707 -173.506 199.331)"/><ellipse cx="165.785" cy="350.376" rx="22.308" ry="21.258" transform="matrix(.707 -.707 .707 .707 -199.195 219.848)"/><ellipse cx="124.976" cy="337.995" rx="22.308" ry="21.258" transform="matrix(.707 -.707 .707 .707 -202.395 187.37)"/></g></g><g><path d="m187.778 214.978c-2.514 0-5.03-.942-6.974-2.835-3.958-3.852-4.043-10.183-.19-14.141 15.428-15.85 29.379-27.267 43.905-35.931 4.742-2.831 10.882-1.278 13.711 3.466s1.277 10.882-3.466 13.711c-12.987 7.746-25.64 18.138-39.819 32.704-1.961 2.015-4.563 3.026-7.167 3.026z" fill="#fff"/></g><g><path d="m278.408 169.183c-1.148 0-2.315-.199-3.455-.619-4.334-1.597-8.514-1.642-13.975-.152-5.327 1.453-10.826-1.688-12.279-7.016-1.453-5.329 1.688-10.826 7.016-12.279 9.526-2.599 17.835-2.383 26.149.68 5.183 1.909 7.837 7.657 5.928 12.84-1.489 4.042-5.314 6.546-9.384 6.546z" fill="#fff"/></g></g><path d="m126.023 20.108 8.214 23.098c.352.989 1.048 1.773 1.927 2.168l20.521 9.246c2.899 1.306 2.899 5.925 0 7.232l-20.521 9.246c-.879.396-1.575 1.179-1.927 2.168l-8.214 23.098c-1.16 3.263-5.265 3.263-6.425 0l-8.214-23.098c-.352-.989-1.048-1.773-1.927-2.168l-20.521-9.246c-2.899-1.306-2.899-5.925 0-7.232l20.521-9.246c.879-.396 1.575-1.18 1.927-2.168l8.214-23.098c1.16-3.263 5.265-3.263 6.425 0z" fill="#cdf4e3"/><ellipse cx="441.435" cy="213.648" fill="#a2e9c4" rx="17.937" ry="17.937" transform="matrix(.217 -.976 .976 .217 136.938 598.085)"/><circle cx="82.682" cy="172.976" fill="#a2e9c4" r="7.737"/><path d="m426.232 295.219 6.093 17.133c.261.734.777 1.315 1.429 1.609l15.222 6.858c2.15.969 2.15 4.395 0 5.364l-15.222 6.858c-.652.294-1.168.875-1.429 1.609l-6.093 17.133c-.861 2.421-3.905 2.421-4.766 0l-6.093-17.133c-.261-.734-.777-1.315-1.429-1.609l-15.222-6.858c-2.151-.969-2.151-4.395 0-5.364l15.222-6.858c.652-.294 1.168-.875 1.429-1.609l6.093-17.133c.86-2.42 3.905-2.42 4.766 0z" fill="#cdf4e3"/></g></svg>